<svg xmlns="http://www.w3.org/2000/svg" viewBox="0 0 310 37.06"><defs><style>.cls-1{fill:#007fff;}.cls-2{fill:#10161a;fill-rule:evenodd;}</style></defs><g id="Layer_2" data-name="Layer 2"><g id="Layer_3" data-name="Layer 3"><path class="cls-1" d="M53.09,34.06H52.7c-4.08.05-7.45-2-10.2-4.84-3.34-3.43-6.82-6.72-10.17-10.14-.64-.65-1.51-1.89-1.28-2.39a4,4,0,0,1,2.45-1.63,8.37,8.37,0,0,1,6.86.75,16.54,16.54,0,0,1,2.94,3l3.06,3.41,1.11,1.22a2,2,0,0,0,1.17.8,2,2,0,0,0,1.42-.68c4.4-4,7.87-8.85,11.54-13.48,1.85-2.32,5-3.06,7.86-2.94a29.93,29.93,0,0,1,7,1.15c2.23.64,2.49,2.17.94,3.91-4.05,4.54-8.14,9-12.18,13.6-1.74,2-3.27,4.37-5.39,5.9A12.56,12.56,0,0,1,53.09,34.06Z"/><path class="cls-1" d="M8.62,7a11.2,11.2,0,0,1,2.85.33c4.75,1.2,7.27,5.2,10.34,8.66,3.51,4,7.13,7.82,10.68,11.76,2.16,2.41,1.91,3.73-1,5-4.73,2-11.18,2-15.13-3.08C11.69,23.58,6.22,18.16,1.12,12.45c-1.82-2-1.44-3.56,1.23-4.33A23.9,23.9,0,0,1,8.62,7Z"/><path class="cls-2" d="M120.36,36.47h-5.21l-4.77-19.59a22,22,0,0,1-.61-3.49h-.1a23.28,23.28,0,0,1-.6,3.49l-4.76,19.59H99.1l-7.34-32h5.93l3.93,20.94c.09.59.19,1.17.28,1.74l.21,1.35c0,.33.07.5.07.54h.09s0-.21.07-.54.13-.77.23-1.35.22-1.15.35-1.74l4.85-20.94h4.38l4.77,20.94c.13.56.24,1.13.33,1.72s.16,1,.21,1.35.07.49.07.56h.09c0-.07,0-.25,0-.56s.1-.76.19-1.35.18-1.16.27-1.72l4.16-20.94h5.44l-7.37,32"/><path class="cls-2" d="M144.62,36.44a24.79,24.79,0,0,1-5.27.51c-3.44,0-6-.67-7.69-2a6.74,6.74,0,0,1-2.53-5.63,7.26,7.26,0,0,1,1.11-4.12,8.71,8.71,0,0,1,3-2.69,15.86,15.86,0,0,1,4.45-1.59,42.79,42.79,0,0,1,5.42-.84V18.71a5,5,0,0,0-.37-2,3.18,3.18,0,0,0-1-1.27,3.92,3.92,0,0,0-1.56-.66,10.53,10.53,0,0,0-2-.19,11.91,11.91,0,0,0-3.46.49,19,19,0,0,0-2.82,1l-1.3-3.25A21.43,21.43,0,0,1,134,11.59a18.62,18.62,0,0,1,5.19-.65,14,14,0,0,1,3.63.45,7.84,7.84,0,0,1,2.93,1.46,7,7,0,0,1,2,2.68,10.18,10.18,0,0,1,.73,4.07l0,15.54a15.21,15.21,0,0,1-3.81,1.3m-1.49-13.68a31.4,31.4,0,0,0-3.6.63,9,9,0,0,0-2.72,1.09,4.91,4.91,0,0,0-1.73,1.81,5.86,5.86,0,0,0-.6,2.84,4.23,4.23,0,0,0,1.37,3.56,6.07,6.07,0,0,0,3.89,1.1,9.21,9.21,0,0,0,1.85-.19,5.84,5.84,0,0,0,1.53-.51V22.76"/><path class="cls-2" d="M168.58,36.51l0-17.78a5.67,5.67,0,0,0-.21-1.51,3.39,3.39,0,0,0-.72-1.35,3.8,3.8,0,0,0-1.37-.95,5.46,5.46,0,0,0-2.22-.38,10.65,10.65,0,0,0-2.25.19,9,9,0,0,0-1.65.51V36.5h-5.68l0-23.73a18.19,18.19,0,0,1,4.18-1.33,29.22,29.22,0,0,1,5.64-.48,15.12,15.12,0,0,1,4.69.63,8.42,8.42,0,0,1,3.07,1.7,6.07,6.07,0,0,1,1.67,2.45,8.23,8.23,0,0,1,.51,2.9V36.51h-5.68"/><path class="cls-2" d="M196.16,36.5a23.68,23.68,0,0,1-5.09.49c-3.73,0-6.6-1.13-8.63-3.36s-3-5.36-3-9.36a17.51,17.51,0,0,1,.79-5.48,11.78,11.78,0,0,1,2.26-4.12,9.88,9.88,0,0,1,3.46-2.58,11,11,0,0,1,4.48-.88,13.4,13.4,0,0,1,3.76.47V0h5.68l0,35.18a13.61,13.61,0,0,1-3.65,1.32m-2-21.75a8.84,8.84,0,0,0-2.52-.33,6.09,6.09,0,0,0-3.11.74,5.67,5.67,0,0,0-2,2.05,9.63,9.63,0,0,0-1.12,3A18.78,18.78,0,0,0,185,24a19.76,19.76,0,0,0,.35,3.86,9.34,9.34,0,0,0,1.09,2.95,5.22,5.22,0,0,0,1.94,1.91,5.67,5.67,0,0,0,2.81.68,5.77,5.77,0,0,0,2.93-.56v-18"/><path class="cls-2" d="M234.07,36.55V18.72a4.46,4.46,0,0,0-1-2.86,3.93,3.93,0,0,0-3.25-1.22,5.72,5.72,0,0,0-4.19,1.71l0,20.19H220v-18a3.7,3.7,0,0,0-1.18-2.91,5,5,0,0,0-3.5-1.09,11.92,11.92,0,0,0-2.08.15,8.81,8.81,0,0,0-1.65.54V36.54h-5.68l0-23.73A16.6,16.6,0,0,1,210,11.43a27.66,27.66,0,0,1,5.34-.44,13,13,0,0,1,4.91.77,7.87,7.87,0,0,1,2.9,2,10.65,10.65,0,0,1,3.21-2,12.92,12.92,0,0,1,4.84-.78,10.52,10.52,0,0,1,3.87.65,7.83,7.83,0,0,1,2.68,1.72,7.15,7.15,0,0,1,1.54,2.45,7.9,7.9,0,0,1,.51,2.85V36.55h-5.67"/><path class="cls-2" d="M265.72,24.05a19.62,19.62,0,0,1-.65,5.17,12.39,12.39,0,0,1-1.93,4.11,9.06,9.06,0,0,1-3.23,2.73,10.4,10.4,0,0,1-4.61,1,10.24,10.24,0,0,1-4.61-1,8.79,8.79,0,0,1-3.23-2.72,12.54,12.54,0,0,1-1.93-4.12,19.74,19.74,0,0,1-.64-5.17,19.52,19.52,0,0,1,.65-5.19,12.23,12.23,0,0,1,1.94-4.13A8.57,8.57,0,0,1,250.7,12a10.13,10.13,0,0,1,4.61-1,10.37,10.37,0,0,1,4.61,1,9.1,9.1,0,0,1,3.25,2.72,11.78,11.78,0,0,1,1.93,4.15,20.38,20.38,0,0,1,.62,5.18M260.1,24a32.66,32.66,0,0,0-.19-3.49,12.46,12.46,0,0,0-.69-3,5.35,5.35,0,0,0-1.44-2.12,4.23,4.23,0,0,0-4.92,0,5.22,5.22,0,0,0-1.46,2.12,12.23,12.23,0,0,0-.71,3,32.72,32.72,0,0,0-.18,3.49,27.19,27.19,0,0,0,.21,3.42,12.46,12.46,0,0,0,.71,2.93,5.17,5.17,0,0,0,1.44,2,3.8,3.8,0,0,0,2.43.77,3.75,3.75,0,0,0,2.46-.77,5.08,5.08,0,0,0,1.45-2,11.13,11.13,0,0,0,.7-2.94A34.24,34.24,0,0,0,260.1,24"/><path class="cls-2" d="M285.18,29.37a7,7,0,0,1-.63,2.93,7.27,7.27,0,0,1-1.8,2.44,8.22,8.22,0,0,1-2.81,1.65,10.52,10.52,0,0,1-3.7.61,14.74,14.74,0,0,1-4-.52,9.43,9.43,0,0,1-2.9-1.31l1.49-3.62a6.89,6.89,0,0,0,1.93,1,8.52,8.52,0,0,0,2.77.43,3.84,3.84,0,0,0,2.81-1,3.31,3.31,0,0,0,1.06-2.53,3.46,3.46,0,0,0-.86-2.51,7.9,7.9,0,0,0-2.81-1.63,12.86,12.86,0,0,1-2.89-1.52,7.29,7.29,0,0,1-1.74-1.72,5.6,5.6,0,0,1-.87-1.86,8.35,8.35,0,0,1-.23-1.93,7.34,7.34,0,0,1,.56-2.81,6.65,6.65,0,0,1,1.61-2.31,7.76,7.76,0,0,1,2.5-1.55,8.72,8.72,0,0,1,3.29-.58,12.87,12.87,0,0,1,3.7.48,10.93,10.93,0,0,1,2.82,1.29l-1.4,3.3a7.14,7.14,0,0,0-1.61-.93,5.87,5.87,0,0,0-2.4-.47,3.49,3.49,0,0,0-2.67,1,3.26,3.26,0,0,0-.91,2.32,3,3,0,0,0,1.05,2.42A9.52,9.52,0,0,0,279.18,22a15.36,15.36,0,0,1,3,1.58A7.63,7.63,0,0,1,284,25.32a6.39,6.39,0,0,1,.91,1.93,8.55,8.55,0,0,1,.25,2.12"/><path class="cls-2" d="M294.63,26.12c.47,4.66,2.75,7,6.84,7a14.43,14.43,0,0,0,3.74-.44,15.08,15.08,0,0,0,2.58-1l1.35,3.58a13.6,13.6,0,0,1-3.37,1.26,20.4,20.4,0,0,1-4.91.51,11,11,0,0,1-8.49-3.36q-3.14-3.35-3.13-9.72a18.33,18.33,0,0,1,.74-5.47,11.78,11.78,0,0,1,2.15-4.07,9,9,0,0,1,3.38-2.53,11.06,11.06,0,0,1,4.44-.86q5,0,7.63,3.24T310,23.9l-15.36,2.22m8.78-9.94a4.4,4.4,0,0,0-3.65-1.65,4.73,4.73,0,0,0-4,2.1c-1,1.39-1.49,3.59-1.43,6.6l10.38-1.57c0-2.54-.43-4.36-1.28-5.48"/></g></g></svg>